<?xml version="1.0" encoding="UTF-8"?>
<svg id="Lager_1" xmlns="http://www.w3.org/2000/svg" viewBox="0 0 371.14 275.36">
  <defs>
    <style>
      .cls-1 {
        fill: #aacce3;
      }

      .cls-2 {
        fill: #8196ae;
      }

      .cls-3 {
        fill: #d5e3e7;
      }

      .cls-4 {
        fill: #9fb9c5;
      }

      .cls-5 {
        fill: #bacdd2;
      }
    </style>
  </defs>
  <path class="cls-1" d="M246.56,72.72c3.43-.76,6.93-1.16,10.44-1.09,10.92.22,21.48,2.27,31.25,7.74,19.34,10.83,31.07,27.12,34.21,49.25.31,2.19,1.07,2.89,3.24,3.03,27.28,1.77,47.38,24.36,45.3,51.54-1.7,22.19-17.54,39.28-38.88,43.49-3.08.61-6.16.75-9.27.75-39.77,0-79.54,0-119.3,0-.39-22.32-14.26-40.43-35.64-46.3-2.19-.6-3.03-1.78-3.6-3.68-1.79-5.98-4.39-11.59-7.98-16.72-1.7-2.42-3.48-4.77-5.23-7.15,9.29-13.65,22.27-20.82,38.65-21.93,1.66-.11,2.31-.57,2.57-2.33,3.75-25.82,17.88-43.46,42-53.31,3.97-1.62,8.14-2.36,12.26-3.27Z"/>
  <path class="cls-3" d="M151.08,153.56c1.75,2.38,3.54,4.73,5.23,7.15,3.59,5.12,6.19,10.73,7.98,16.72.57,1.91,1.41,3.08,3.6,3.68,21.38,5.87,35.24,23.98,35.64,46.3-.05,9.19-2.4,17.71-7.44,25.43-.92-1.26-1.8-.25-2.6.11-7.26,3.29-14.85,4.42-22.8,4.39-34.24-.12-68.49-.1-102.73-.01-7.18.02-14.06-1-20.67-3.83-17.69-7.6-28.49-23.88-29.3-42.31-.34-7.69,1.15-15.05,4.48-22.02.36-.75,1.04-1.53-.04-2.27,4.01-2.73,8.42-4.6,13.08-5.83,1.45-.38,2.63-.68,2.7-2.42.92-.43,1.01-1.4,1.27-2.17,4.06-12.11,10.92-22.33,21-30.17,17.84-13.88,37.71-18.14,59.65-12.04,12.22,3.4,22.22,10.31,30.96,19.27Z"/>
  <path class="cls-4" d="M29.29,163.04c-6.97-15.95-7.37-32.28-1.1-48.31,9.48-24.24,27.44-38.46,53.33-42.29,2.37-.35,3.36-1.34,3.79-3.69C92.05,32.11,121.15,4.79,157.84.55c38.6-4.46,70.5,18.86,83.54,54.93-15.67.11-23.92,5.97-35.09,16.22-10.05,9.23-16.95,20.66-19.1,34.22-.91,5.74-2.7,7.76-8.64,8.41-13.21,1.45-23.76,8.29-31.68,18.98-1.41,1.9-2.35,2.09-3.91.25-2.42-2.86-5.42-5.13-8.45-7.28-14.75-10.45-31.06-14.68-48.99-11.87-13.36,2.1-25.11,7.76-34.92,17.12-8.05,7.68-13.99,16.75-17.21,27.5-.62,2.08-1.28,4.16-4.1,4Z"/>
  <path class="cls-2" d="M29.29,163.04c2.82.16,3.48-1.92,4.1-4,3.22-10.74,9.16-19.82,17.21-27.5,9.81-9.36,21.56-15.02,34.92-17.12,17.93-2.82,34.24,1.42,48.99,11.87,3.04,2.15,6.03,4.42,8.45,7.28,1.56,1.84,2.5,1.65,3.91-.25,7.92-10.69,18.46-17.53,31.68-18.98,5.94-.65,7.73-2.67,8.64-8.41,2.15-13.56,9.06-25,19.1-34.22,11.17-10.26,19.42-16.11,35.09-16.22,2.44,5.48,3.4,11.36,4.66,17.16-5.43,1.55-6.43,1.19-11.74,3.36-24.12,9.85-38.25,27.49-42,53.31-.26,1.76-.91,2.21-2.57,2.33-16.38,1.12-29.36,8.28-38.65,21.93-8.74-8.96-18.74-15.86-30.96-19.27-21.94-6.11-41.81-1.85-59.65,12.04-10.07,7.84-16.94,18.06-21,30.17-.26.78-.36,1.74-1.27,2.17-3.59-4.86-7.14-9.74-8.91-15.63Z"/>
  <path class="cls-5" d="M22.41,186.91c1.08.74.4,1.51.04,2.27-3.33,6.97-4.81,14.33-4.48,22.02.81,18.43,11.61,34.71,29.3,42.31,6.61,2.84,13.5,3.85,20.67,3.83,34.24-.09,68.49-.11,102.73.01,7.95.03,15.55-1.1,22.8-4.39.8-.36,1.69-1.37,2.6-.11-9.07,14.11-22.07,22.08-38.74,22.27-37.15.43-74.31.17-111.47.12-21.58-.03-41.89-18.59-45.29-39.92-3.34-20.97,7.9-40.37,21.82-48.41Z"/>
</svg>