<?xml version="1.0" encoding="UTF-8"?>
<svg id="Lager_1" data-name="Lager 1" xmlns="http://www.w3.org/2000/svg" xmlns:xlink="http://www.w3.org/1999/xlink" viewBox="0 0 485.85 208">
  <defs>
    <style>
      .cls-1 {
        fill: url(#Namnlös_övertoning_15);
      }

      .cls-1, .cls-2, .cls-3 {
        stroke-width: 0px;
      }

      .cls-2 {
        fill: url(#Namnlös_övertoning_15-2);
      }

      .cls-3 {
        fill: url(#Namnlös_övertoning_15-3);
      }
    </style>
    <linearGradient id="Namnlös_övertoning_15" data-name="Namnlös övertoning 15" x1="294.16" y1="104" x2="485.85" y2="104" gradientUnits="userSpaceOnUse">
      <stop offset="0" stop-color="#f39041"/>
      <stop offset="1" stop-color="#3b56a2"/>
    </linearGradient>
    <linearGradient id="Namnlös_övertoning_15-2" data-name="Namnlös övertoning 15" x1="151.55" x2="359.55" xlink:href="#Namnlös_övertoning_15"/>
    <linearGradient id="Namnlös_övertoning_15-3" data-name="Namnlös övertoning 15" x1="0" y1="148.02" x2="294.45" y2="148.02" xlink:href="#Namnlös_övertoning_15"/>
  </defs>
  <path class="cls-1" d="m335.12,92.16s1.82-20.36,21.71-15.68c7.25,1.7,13.53,6.2,17.8,12.3l2.37,3.38s30.64-28.34,51.06-.77c0,0,21.96.25,25.02,9.96,0,0,41.36-5.62,31.15,8.68s-40.85,7.66-40.85,7.66c0,0-11.23,28.09-55.66,6.13,0,0-11.75,14.11-38.3,4.09-26.55-10.03-21.45-19.91-21.45-19.91,0,0-31.15,9.37-33.7-3.99s40.85-11.84,40.85-11.84Z"/>
  <circle class="cls-2" cx="255.55" cy="104" r="104"/>
  <path class="cls-3" d="m52.69,127.63s37-43,93-13c0,0,37-21.54,70,6.46,0,0,35.55-7.12,33.85,21.14,0,0,98.04,11.23,4.43,35.74-59.36,15.54-93.62-2.72-93.62-2.72,0,0-30.66,29.38-67.66,10.38s-30-29-28-29S6.92,173.39.91,148.02c-9-38,51.78-20.38,51.78-20.38Z"/>
</svg>