<?xml version="1.0" encoding="UTF-8"?>
<svg id="Lager_1" xmlns="http://www.w3.org/2000/svg" viewBox="0 0 503.48 34.47">
  <defs>
    <style>
      .cls-1 {
        fill: #1d1d1b;
      }
    </style>
  </defs>
  <path class="cls-1" d="M29.38.48h6.72c1.3,0,2.16,1.25,2.16,3.07v11.76c0,3.7,1.3,5.76,3.79,5.76,2.93,0,4.22-1.63,4.22-5.71V3.55c0-1.82,1.25-3.07,3.07-3.07h4.9c1.82,0,3.07,1.25,3.07,3.07v17.09c0,9.22-4.7,13.83-13.87,13.83-5.14,0-8.78-1.44-11.09-4.32-2.98,2.88-7.82,4.32-14.45,4.32C6,34.47,0,29.86,0,20.64V4.32C0,2.02,1.54.48,3.84.48h11.52c2.3,0,3.84,1.54,3.84,3.84v10.99c0,3.7,1.3,5.76,3.79,5.76,2.93,0,4.22-1.63,4.22-5.71V3.55c0-1.82.86-3.07,2.16-3.07Z"/>
  <path class="cls-1" d="M92.16,15.12c1.01,0,1.68.67,1.68,1.68v.96c0,1.01-.67,1.68-1.68,1.68h-20.93v3.12h22.42c1.97,0,3.31,1.34,3.31,3.31v4.9c0,1.97-1.34,3.31-3.31,3.31h-30.15c-2.26,0-3.79-1.54-3.79-3.79V4.27c0-2.26,1.54-3.79,3.79-3.79h30.15c1.97,0,3.31,1.34,3.31,3.31v4.9c0,1.97-1.34,3.31-3.31,3.31h-22.42v3.12h20.93Z"/>
  <path class="cls-1" d="M131.91.48c2.26,0,4.32,1.44,5.14,3.55l9.75,25.15c1.15,2.93-.24,4.9-3.36,4.9h-12.39c-1.25,0-2.35-.77-2.78-1.92l-1.63-4.32h-8.35l-1.63,4.32c-.43,1.15-1.54,1.92-2.78,1.92h-12.38c-3.12,0-4.51-1.97-3.36-4.9l9.74-25.15c.82-2.11,2.88-3.55,5.14-3.55h18.91ZM122.45,20.11c7.06,0,9.07-1.78,9.07-3.31s-2.02-3.31-9.07-3.31-9.07,1.78-9.07,3.31,2.02,3.31,9.07,3.31Z"/>
  <path class="cls-1" d="M184.76.48c1.68,0,2.83,1.15,2.83,2.83v5.86c0,1.68-1.15,2.83-2.83,2.83h-10.03v18.24c0,2.3-1.54,3.84-3.84,3.84h-11.52c-2.3,0-3.84-1.54-3.84-3.84V12h-10.03c-1.68,0-2.83-1.15-2.83-2.83V3.31c0-1.68,1.15-2.83,2.83-2.83h39.27Z"/>
  <path class="cls-1" d="M189.26,4.27c0-2.26,1.54-3.79,3.79-3.79h11.62c2.26,0,3.79,1.54,3.79,3.79v16.23h6.77V4.27c0-2.26,1.54-3.79,3.79-3.79h11.62c2.26,0,3.79,1.54,3.79,3.79v26.02c0,2.26-1.54,3.79-3.79,3.79h-11.62c-2.26,0-3.79-1.54-3.79-3.79v-4.03h-6.77v4.03c0,2.26-1.54,3.79-3.79,3.79h-11.62c-2.26,0-3.79-1.54-3.79-3.79V4.27Z"/>
  <path class="cls-1" d="M269.76,15.12c1.01,0,1.68.67,1.68,1.68v.96c0,1.01-.67,1.68-1.68,1.68h-20.93v3.12h22.42c1.97,0,3.31,1.34,3.31,3.31v4.9c0,1.97-1.34,3.31-3.31,3.31h-30.15c-2.26,0-3.79-1.54-3.79-3.79V4.27c0-2.26,1.54-3.79,3.79-3.79h30.15c1.97,0,3.31,1.34,3.31,3.31v4.9c0,1.97-1.34,3.31-3.31,3.31h-22.42v3.12h20.93Z"/>
  <path class="cls-1" d="M299.38,30.48c0-3.74-1.15-6.29-3.46-6.29v6.53c0,2.02-1.34,3.36-3.36,3.36h-12.24c-2.16,0-3.6-1.44-3.6-3.6V4.32c0-2.3,1.54-3.84,3.84-3.84h23.04c10.32,0,15.65,3.7,15.65,10.71,0,6.19-4.08,9.79-12,10.61,7.63.72,12,3.89,12,9.36,0,1.68-1.39,2.93-3.22,2.93h-14.11c-1.82,0-2.54-1.01-2.54-3.6ZM297.79,17.23c8.11,0,10.51-1.39,10.51-2.59s-2.4-2.59-10.51-2.59-10.51,1.39-10.51,2.59,2.4,2.59,10.51,2.59Z"/>
  <path class="cls-1" d="M353.86,17.52c1.01,0,1.68.67,1.68,1.68v.96c0,1.01-.67,1.68-1.68,1.68h-15.17v8.4c0,2.3-1.54,3.84-3.84,3.84h-9.65c-2.26,0-3.79-1.54-3.79-3.79V4.27c0-2.26,1.54-3.79,3.79-3.79h29.62c2.3,0,3.84,1.54,3.84,3.84v4.8c0,2.3-1.54,3.84-3.84,3.84h-16.13v4.56h15.17Z"/>
  <path class="cls-1" d="M376.95.48c2.26,0,3.79,1.54,3.79,3.79v21.65h15.17c1.73,0,2.88,1.15,2.88,2.88v2.4c0,1.73-1.15,2.88-2.88,2.88h-30.58c-2.26,0-3.79-1.54-3.79-3.79V4.27c0-2.26,1.54-3.79,3.79-3.79h11.62Z"/>
  <path class="cls-1" d="M421.54,0c15.07,0,22.95,5.95,22.95,17.23s-7.87,17.23-22.95,17.23-22.99-5.9-22.99-17.23,7.87-17.23,22.99-17.23ZM421.49,21.07c9.22,0,11.91-2.02,11.91-3.79s-2.69-3.79-11.91-3.79-11.91,2.02-11.91,3.79,2.69,3.79,11.91,3.79Z"/>
  <path class="cls-1" d="M475.54.48h6.72c1.3,0,2.16,1.25,2.16,3.07v11.76c0,3.7,1.3,5.76,3.79,5.76,2.93,0,4.22-1.63,4.22-5.71V3.55c0-1.82,1.25-3.07,3.07-3.07h4.9c1.82,0,3.07,1.25,3.07,3.07v17.09c0,9.22-4.71,13.83-13.87,13.83-5.14,0-8.79-1.44-11.09-4.32-2.98,2.88-7.82,4.32-14.45,4.32-11.9,0-17.91-4.61-17.91-13.83V4.32c0-2.3,1.54-3.84,3.84-3.84h11.52c2.3,0,3.84,1.54,3.84,3.84v10.99c0,3.7,1.3,5.76,3.79,5.76,2.93,0,4.22-1.63,4.22-5.71V3.55c0-1.82.86-3.07,2.16-3.07Z"/>
</svg>