<?xml version="1.0" encoding="UTF-8"?>
<svg id="Lager_1" data-name="Lager 1" xmlns="http://www.w3.org/2000/svg" xmlns:xlink="http://www.w3.org/1999/xlink" viewBox="0 0 322.68 383.43">
  <defs>
    <style>
      .cls-1 {
        fill: url(#Namnlös_övertoning_8);
      }

      .cls-1, .cls-2, .cls-3 {
        stroke-width: 0px;
      }

      .cls-2 {
        fill: url(#Namnlös_övertoning_7);
      }

      .cls-3 {
        fill: #fff;
      }
    </style>
    <linearGradient id="Namnlös_övertoning_7" data-name="Namnlös övertoning 7" x1="233.68" y1="194.26" x2="51.31" y2="86.12" gradientUnits="userSpaceOnUse">
      <stop offset=".26" stop-color="#ff7d2a"/>
      <stop offset="1" stop-color="#a22112"/>
    </linearGradient>
    <linearGradient id="Namnlös_övertoning_8" data-name="Namnlös övertoning 8" x1="282.55" y1="383.2" x2="-3.43" y2="233.74" gradientUnits="userSpaceOnUse">
      <stop offset=".45" stop-color="#ff7d2a"/>
      <stop offset="1" stop-color="#a22112"/>
    </linearGradient>
  </defs>
  <path class="cls-2" d="m161.39,319.66c-.75-.91-1.25-1.43-1.65-2.02-30.51-44.33-59.58-89.54-82.77-138.21-6.15-12.9-11.23-26.36-16.11-39.81-8.65-23.84-7.2-47.74,2.35-70.88C78.48,31.71,105.56,7.87,145.66,1.45c37.63-6.02,69.3,6.85,94.28,35.17,19.59,22.21,28.5,48.65,27.06,78.25-.66,13.58-5.29,26.34-10.17,38.91-11.5,29.62-26.47,57.54-43.02,84.57-15.76,25.73-32.5,50.87-48.83,76.26-1.05,1.64-2.26,3.19-3.59,5.05Zm42.31-217.85c-.25-1.94-.45-5.57-1.22-9.08-5.84-26.57-33.29-41.02-57.79-30.52-20.79,8.91-31.37,33.86-23.65,55.77,6.77,19.21,25.93,31.69,44.71,29.1,22.08-3.05,37.46-20.73,37.96-45.26Z"/>
  <path class="cls-1" d="m104.09,260.65c.91,6.37,1.81,12.61,2.73,19.05-8.59,1.67-16.94,3.05-25.17,4.93-16.6,3.79-32.89,8.61-47.4,17.87-3.84,2.45-7.47,5.51-10.51,8.9-5.11,5.72-5.19,11.98.23,17.42,4.34,4.35,9.41,8.27,14.77,11.28,16.06,9.03,33.74,13.57,51.69,17.03,33.73,6.49,67.78,7.6,101.94,5.12,29.01-2.11,57.63-6.64,84.4-18.74,6.85-3.1,13.49-7.21,19.28-11.99,9.4-7.77,9.15-15.33.05-23.56-8.39-7.59-18.59-12.04-29.06-15.9-15.88-5.86-32.38-9.24-49.05-11.9-.48-.08-.96-.19-1.85-.37.92-6.39,1.82-12.71,2.82-19.63,8.95,1.7,17.55,3.11,26.04,4.99,17.86,3.95,35.43,8.99,51.06,18.77,6.68,4.18,13.19,9.26,18.32,15.18,11.62,13.43,10.83,29.84-1.05,43.06-9.79,10.89-22.47,17.28-35.8,22.54-21.28,8.4-43.54,12.85-66.15,15.63-25,3.08-50.09,3.92-75.23,2.27-32.04-2.11-63.58-6.85-93.59-18.92-12.24-4.92-23.78-11.11-32.84-21.04-12.97-14.23-12.95-31.51.08-45.73,9.16-10,20.83-16.19,33.18-21.21,19.08-7.76,39.09-11.99,59.38-15.04.47-.07.96,0,1.74,0Z"/>
  <path class="cls-3" d="m203.7,101.81c-.5,24.54-15.88,42.22-37.96,45.26-18.77,2.59-37.94-9.88-44.71-29.1-7.72-21.91,2.86-46.86,23.65-55.77,24.5-10.5,51.95,3.95,57.79,30.52.77,3.51.97,7.14,1.22,9.08Z"/>
</svg>