<?xml version="1.0" encoding="UTF-8"?>
<svg id="Lager_1" data-name="Lager 1" xmlns="http://www.w3.org/2000/svg" xmlns:xlink="http://www.w3.org/1999/xlink" viewBox="0 0 130.89 196">
  <defs>
    <style>
      .cls-1 {
        fill: url(#Namnlös_övertoning_152);
        stroke-width: 0px;
      }
    </style>
    <linearGradient id="Namnlös_övertoning_152" data-name="Namnlös övertoning 152" x1="3.94" y1="114.69" x2="168.07" y2="66.1" gradientUnits="userSpaceOnUse">
      <stop offset=".35" stop-color="#ff7d2a"/>
      <stop offset="1" stop-color="#9b1a10"/>
    </linearGradient>
  </defs>
  <path class="cls-1" d="m65.49,0C94.43,0,119,18.94,127.84,47.69c4.97,16.15,3.54,31.87-2,47.53-8.4,23.75-21.12,45.21-34.86,66.13-7.17,10.91-14.81,21.5-22.76,31.85-2.87,3.74-3.87,3.75-6.62,0-19.67-26.81-37.79-54.56-51.08-85.19C5.56,96.6,1.38,84.89.26,72.34-3.09,34.77,26.25-.48,65.49,0Zm-33.11,65.53c.05,18.17,14.86,33.09,32.89,33.14,18.34.04,33.27-14.82,33.28-33.14.02-18.41-14.75-33.24-33.09-33.23-18.37,0-33.13,14.84-33.09,33.23h.01Z"/>
</svg>