<?xml version="1.0" encoding="UTF-8"?>
<svg id="Lager_1" xmlns="http://www.w3.org/2000/svg" viewBox="0 0 252.9 241.4">
  <defs>
    <style>
      .cls-1 {
        fill: #d5e3e7;
      }

      .cls-2 {
        fill: #9fb9c5;
      }
    </style>
  </defs>
  <path class="cls-1" d="M217.99,55.75h-.87c-1.99-31.11-27.78-55.75-59.39-55.75-18.62,0-35.23,8.54-46.16,21.91-7.05-4.42-15.36-7.01-24.3-7.01-18.21,0-33.89,10.63-41.3,26h-3.64C18.95,40.9,0,59.85,0,83.23s18.95,42.33,42.33,42.33h175.67c19.28,0,34.91-15.63,34.91-34.91h0c0-19.28-15.63-34.91-34.91-34.91Z"/>
  <path class="cls-2" d="M217.99,55.75h-.87c-1.99-31.11-27.78-55.75-59.39-55.75-5.32,0-10.47.72-15.38,2.03,22.4,6.17,39.12,25.99,40.65,49.98h.81c17.98,0,32.56,14.58,32.56,32.56h0c0,17.98-14.58,32.56-32.56,32.56H19.94c-1.04,0-2.07-.08-3.09-.16,7.1,5.36,15.9,8.59,25.48,8.59h175.67c19.28,0,34.91-15.63,34.91-34.91h0c0-19.28-15.63-34.9-34.91-34.9Z"/>
  <path class="cls-1" d="M126.45,185.19c-7.8,0-14.14-6.35-14.14-14.14,0-9.93,7.97-19.11,13.24-25.18l.58-.67c.17-.2.5-.2.68,0l.58.67c5.27,6.08,13.24,15.26,13.24,25.18-.02,7.8-6.36,14.14-14.17,14.14Z"/>
  <path class="cls-2" d="M128.27,146.91c3.65,5.22,6.71,11.27,6.71,17.62,0,8.3-6.75,15.05-15.05,15.05-1.92,0-3.74-.4-5.43-1.05,2.5,3.99,6.91,6.67,11.96,6.67,7.8,0,14.15-6.34,14.15-14.15,0-9.38-7.1-18.09-12.33-24.14Z"/>
  <path class="cls-1" d="M196.6,173.15c-5.16,0-9.35-4.2-9.35-9.35,0-6.56,5.27-12.63,8.75-16.65l.38-.44c.12-.13.33-.13.45,0l.38.44c3.48,4.02,8.75,10.09,8.75,16.65-.01,5.16-4.2,9.35-9.36,9.35Z"/>
  <path class="cls-2" d="M197.8,147.85c2.41,3.45,4.44,7.45,4.44,11.64,0,5.49-4.46,9.95-9.95,9.95-1.27,0-2.47-.26-3.59-.7,1.65,2.64,4.57,4.41,7.91,4.41,5.16,0,9.35-4.19,9.35-9.35,0-6.2-4.69-11.96-8.15-15.96Z"/>
  <path class="cls-1" d="M50.65,182.12c-6.25,0-11.33-5.09-11.33-11.33,0-7.95,6.38-15.3,10.6-20.17l.46-.53c.14-.16.4-.16.54,0l.46.53c4.22,4.87,10.6,12.22,10.6,20.17-.02,6.25-5.1,11.33-11.35,11.33Z"/>
  <path class="cls-2" d="M52.11,151.46c2.93,4.18,5.37,9.03,5.37,14.11,0,6.65-5.41,12.06-12.06,12.06-1.54,0-3-.32-4.35-.84,2.01,3.2,5.53,5.34,9.58,5.34,6.25,0,11.33-5.08,11.33-11.33,0-7.51-5.69-14.49-9.87-19.34Z"/>
  <path class="cls-1" d="M85.29,224.07c-5.33,0-9.66-4.34-9.66-9.66,0-6.78,5.44-13.05,9.04-17.2l.4-.46c.12-.13.34-.13.46,0l.4.46c3.6,4.15,9.04,10.42,9.04,17.2-.01,5.32-4.35,9.66-9.68,9.66Z"/>
  <path class="cls-2" d="M86.53,197.91c2.5,3.57,4.58,7.7,4.58,12.03,0,5.67-4.61,10.28-10.28,10.28-1.31,0-2.56-.27-3.71-.72,1.71,2.73,4.72,4.56,8.17,4.56,5.33,0,9.66-4.33,9.66-9.66,0-6.41-4.85-12.35-8.42-16.49Z"/>
  <path class="cls-1" d="M168.6,241.4c-7.8,0-14.14-6.35-14.14-14.14,0-9.93,7.97-19.11,13.24-25.18l.58-.67c.17-.2.5-.2.68,0l.58.67c5.27,6.08,13.24,15.26,13.24,25.18-.02,7.79-6.36,14.14-14.17,14.14Z"/>
  <path class="cls-2" d="M170.42,203.11c3.65,5.22,6.71,11.27,6.71,17.62,0,8.3-6.75,15.05-15.05,15.05-1.92,0-3.74-.4-5.43-1.05,2.5,3.99,6.91,6.67,11.96,6.67,7.8,0,14.15-6.34,14.15-14.15,0-9.38-7.1-18.09-12.33-24.14Z"/>
</svg>