<?xml version="1.0" encoding="UTF-8"?>
<svg id="Lager_1" data-name="Lager 1" xmlns="http://www.w3.org/2000/svg" xmlns:xlink="http://www.w3.org/1999/xlink" viewBox="0 0 357.8 359.2">
  <defs>
    <style>
      .cls-1 {
        fill: url(#Namnlös_övertoning_14);
        stroke-width: 0px;
      }
    </style>
    <linearGradient id="Namnlös_övertoning_14" data-name="Namnlös övertoning 14" x1="35.87" y1="98.51" x2="363.54" y2="242.22" gradientTransform="translate(0 359.89) scale(1 -1)" gradientUnits="userSpaceOnUse">
      <stop offset=".32" stop-color="#ff7d2a"/>
      <stop offset="1" stop-color="#a22112"/>
    </linearGradient>
  </defs>
  <path class="cls-1" d="m339.79,359.2h-10.96c-5-3.21-9.74-6.76-13.95-10.98-.69-1.3-1.72-2.27-2.98-3.02h0c-8.19-8.36-17.51-17.62-25.83-25.96-1.65-2.38-3.79-4.28-6.02-6.1-3.63-3.63-7.25-7.26-10.88-10.9-.7-1.28-1.69-2.28-2.97-2.98-3.76-4.29-7.74-8.36-12.06-12.09-4.87-5.13-9.49-10.5-14.91-15.08-.64-1.23-1.57-2.16-2.8-2.8-4.9-5-10.01-9.8-14.7-14.99-1.8-1.88-3.83-3.6-5.36-5.68-3.13-4.28-6.14-4.41-9.41-.29-2.44,1-4.71,2.29-6.71,4.04-2.38.29-3.99,2.03-5.95,3.12l-3.09,1.41c-.3.17-.59.35-.89.52h0c-10.2,4.4-20.82,7.49-31.59,10.1-4.12.54-8.25,1.07-12.37,1.61-2.95.14-5.91.27-8.86.41-6.3-.33-12.61-.66-18.91-1-1.62-.67-3.27-.62-4.94-.27-2.88-1.28-5.89-1.93-9.03-2.03l-1.84.12c-.18-.55-.44-1.02-1.14-.96-.94-.92-1.91-.08-2.86-.04-.17-.56-.42-1.03-1.12-.96-1.68-.58-3.37-1.16-5.05-1.74-5.95-2.43-11.89-4.85-17.84-7.28-5.02-2.59-9.23-6.69-14.91-8.06l.05.05c-.24-1.22-1.06-1.92-2.15-2.37-2.54-1.88-5.08-3.77-7.62-5.65-1.54-1.62-2.79-3.61-5.25-4.03-7.32-8.42-15.45-16.16-21.43-25.7-5.83-9.56-11.08-19.39-14.76-30.01-.52-1.22-1.06-2.44-1.66-3.63-.13-.81-.26-1.62-.38-2.44-.2-.4-.4-.8-.6-1.19-2.87-11.91-4.8-24.06-5.08-36.34,0-1.09.95-2.7-.97-3.32v-5.99c1.29-.48,1.47-1.57,1.62-2.77.81-6.38,1.67-12.75,2.51-19.12,1.51-5,3.02-10.01,4.52-15.01,1.54-3.91,3.09-7.83,4.63-11.74,1.29-2.72,2.58-5.44,3.87-8.16,1.74-1.94,3.02-4.16,3.95-6.59,3.1-4.26,6.3-8.45,9.28-12.78,4.85-7.06,11.31-12.79,17.15-18.85,3.49-3.61,8.86-6.36,13.31-9.62,3.66-1.49,6.82-3.78,9.99-6.07,1.89-.64,3.97-.95,5.04-2.98.3.02.59-.02.87-.13.83.3.92-.37,1.14-.87.3.03.58-.02.86-.12.83.3.92-.37,1.14-.87.3.03.58-.02.86-.12.83.3.92-.37,1.14-.87.62-.05,1.23-.1,1.85-.15,6.71-1.9,13.24-4.35,19.99-6.18,5.91-1.6,12.15-1.37,17.87-3.7h25.91c7.97,1.62,15.95,3.25,23.92,4.87.87.71,1.72,1.45,2.98.99,1.32.41,2.45,1.43,3.97,1.18,5.32,2.29,10.65,4.59,15.97,6.88,1.6.83,3.19,1.65,4.79,2.48,3.67,2.18,7.31,4.46,11.01,6.59,1.11,1.34,2.37,2.5,4.07,3.05l-.05-.04c1.1,1.34,2.35,2.48,4.03,3.03l-.05-.04c1.63,2.16,3.8,3.71,5.98,5.23,3.26,3.26,6.52,6.51,9.78,9.77,1.99,2.33,4.03,4.62,5.99,6.98.07,1.5,1.09,2.31,2.22,3.04l.75.96c.4,1.25,1.1,2.28,2.22,3l-.04-.05c3.31,5.68,6.62,11.35,9.92,17.03,2.05,4.94,4.1,9.89,6.15,14.83,1.59,5.46,3.17,10.92,4.76,16.38,2.24,14.36,3.22,28.89,2.13,43.41-1.55,10.18-3.92,20.16-6.92,30.01h0c-.33.19-.44.46-.34.81-.23.69-.45,1.38-.68,2.08l-.64,1.04c-.16.67-.31,1.33-.47,2-.95,1.2-1.7,2.49-1.81,4.06l-.02.05c-.18.28-.36.55-.54.83-.56,1.34-1.12,2.67-1.68,4.01-2.45,4.78-5.26,9.34-8.01,13.94-3.26,2.74-3.22,5.18.34,7.77,2.11,1.53,3.84,3.58,5.74,5.4,5.35,5.35,10.69,10.71,16.04,16.06,15.44,15.69,31.03,31.24,46.58,46.83,3.9,4.94,8.56,9.14,13.14,13.4,8,8.14,16.43,15.95,23.8,24.66,5.83,7.21,6.79,15.2,3.05,23.72-3.07,6.99-9.12,10.33-15.77,12.94l-.02.02ZM122.57,46.1c-1.22-.17-2.44-.3-3.46.64-5.12.34-9.98,1.64-14.57,3.94-11.95,3.7-22.05,10.4-30.88,19.15-2.52,1.94-4.92,3.99-6.43,6.87-6.77,7.34-11.73,15.77-15.15,25.14-2.15,4.99-3.83,10.12-4.45,15.55-1.37,5.03-2,10.13-1.69,15.34-.43,6.44-.06,12.81,1.62,19.07.13.63.26,1.26.4,1.89-.13.8,0,1.52.63,2.09-.45,1.86,1.27,3.15,1.27,4.89-.09.7.38.93.92,1.1-.32,1.54-.37,3.03.83,4.28.5,1.56.85,3.19,1.52,4.67,5.28,11.81,12.65,22.17,22.28,30.77,8.55,7.64,18.01,13.92,29.15,17.25,2.46,1.58,5.22,2.2,8.07,2.58l.96.12.36.23.42-.1c.38.2.77.39,1.15.59,1.32.2,2.63.4,3.95.6,5.6,1.36,11.27,1.97,17.04,1.56,4.86.22,9.62-.5,14.33-1.63,4.79-.49,9.37-1.75,13.76-3.71,11.21-3.54,20.8-9.89,29.77-17.3,3.28-1.41,5.77-3.58,6.84-7.12.17-.24.23-.51.16-.8,1.11-.31,1.88-.95,2.06-2.15,6.66-8.05,12.02-16.82,14.95-26.94,2.2-4.76,3.68-9.71,3.91-14.99,1.52-6.97,2.41-13.97.98-21.08,0-3,.36-6.03-.98-8.88-.44-5.23-1.55-10.28-3.9-15.01-3.8-12.55-10.73-23.17-19.93-32.4-.54-.54-1.08-1.08-1.62-1.63-9.13-9.46-20.06-16.08-32.38-20.49-3.52-1.55-7.25-2.37-11-3.09-.66-.1-1.32-.19-1.98-.29-.61-.1-1.23-.2-1.84-.3-5.29-1.2-10.63-1.9-16.08-1.46-3.53-.86-6.55,1.16-9.82,1.77-.19-.54-.4-1.05-1.14-.75l-.03.03Z"/>
</svg>