<?xml version="1.0" encoding="UTF-8"?>
<svg id="Lager_1" xmlns="http://www.w3.org/2000/svg" xmlns:xlink="http://www.w3.org/1999/xlink" viewBox="0 0 517.51 513.92">
  <defs>
    <style>
      .cls-1 {
        fill: url(#Namnlös_övertoning_3-3);
      }

      .cls-2 {
        fill: url(#Namnlös_övertoning_3-11);
      }

      .cls-3 {
        fill: url(#Namnlös_övertoning_3-2);
      }

      .cls-4 {
        fill: url(#Namnlös_övertoning_3-7);
      }

      .cls-5 {
        fill: url(#Namnlös_övertoning_3-5);
      }

      .cls-6 {
        fill: url(#Namnlös_övertoning_3);
      }

      .cls-7 {
        fill: #ffd049;
      }

      .cls-8 {
        fill: url(#Namnlös_övertoning_3-9);
      }

      .cls-9 {
        fill: url(#Namnlös_övertoning_3-6);
      }

      .cls-10 {
        fill: url(#Namnlös_övertoning_3-13);
      }

      .cls-11 {
        fill: url(#Namnlös_övertoning_3-4);
      }

      .cls-12 {
        fill: url(#Namnlös_övertoning_3-10);
      }

      .cls-13 {
        fill: url(#Namnlös_övertoning_3-8);
      }

      .cls-14 {
        fill: url(#Namnlös_övertoning_3-12);
      }
    </style>
    <linearGradient id="Namnlös_övertoning_3" data-name="Namnlös övertoning 3" x1="170.21" y1="223.37" x2="370.33" y2="284.82" gradientUnits="userSpaceOnUse">
      <stop offset="0" stop-color="#ffd047"/>
      <stop offset=".49" stop-color="#f39041"/>
      <stop offset=".95" stop-color="#e41718"/>
    </linearGradient>
    <linearGradient id="Namnlös_övertoning_3-2" data-name="Namnlös övertoning 3" x1="321.49" y1="96.45" x2="414.73" y2="96.45" gradientTransform="translate(-11.1 57.19) rotate(-8.74)" xlink:href="#Namnlös_övertoning_3"/>
    <linearGradient id="Namnlös_övertoning_3-3" data-name="Namnlös övertoning 3" x1="371.71" y1="173.22" x2="464.96" y2="173.22" gradientTransform="translate(65.67 -95.14) rotate(13.42)" xlink:href="#Namnlös_övertoning_3"/>
    <linearGradient id="Namnlös_övertoning_3-4" data-name="Namnlös övertoning 3" x1="383.73" y1="247.44" x2="476.97" y2="247.44" gradientTransform="translate(263.42 -198.67) rotate(37.97)" xlink:href="#Namnlös_övertoning_3"/>
    <linearGradient id="Namnlös_övertoning_3-5" data-name="Namnlös övertoning 3" x1="363.49" y1="312.52" x2="456.73" y2="312.52" gradientTransform="translate(628.49 -106.21) rotate(76.52)" xlink:href="#Namnlös_övertoning_3"/>
    <linearGradient id="Namnlös_övertoning_3-6" data-name="Namnlös övertoning 3" x1="255.58" y1="389.94" x2="348.82" y2="389.94" gradientTransform="translate(755.28 476.26) rotate(131.22)" xlink:href="#Namnlös_övertoning_3"/>
    <linearGradient id="Namnlös_övertoning_3-7" data-name="Namnlös övertoning 3" x1="381.15" y1="106.07" x2="474.4" y2="106.07" gradientTransform="translate(553.07 36.43) rotate(102.52)" xlink:href="#Namnlös_övertoning_3"/>
    <linearGradient id="Namnlös_övertoning_3-8" data-name="Namnlös övertoning 3" x1="240.62" y1="415.49" x2="333.86" y2="415.49" gradientTransform="translate(-236.51 9.57) rotate(-48.78)" xlink:href="#Namnlös_övertoning_3"/>
    <linearGradient id="Namnlös_övertoning_3-9" data-name="Namnlös övertoning 3" x1="326.87" y1="93.02" x2="420.12" y2="93.02" gradientTransform="translate(533.41 57.19) rotate(-171.26) scale(1 -1)" xlink:href="#Namnlös_övertoning_3"/>
    <linearGradient id="Namnlös_övertoning_3-10" data-name="Namnlös övertoning 3" x1="375.41" y1="168.01" x2="468.65" y2="168.01" gradientTransform="translate(456.65 -95.14) rotate(166.58) scale(1 -1)" xlink:href="#Namnlös_övertoning_3"/>
    <linearGradient id="Namnlös_övertoning_3-11" data-name="Namnlös övertoning 3" x1="384.92" y1="241.17" x2="478.17" y2="241.17" gradientTransform="translate(258.89 -198.67) rotate(142.03) scale(1 -1)" xlink:href="#Namnlös_övertoning_3"/>
    <linearGradient id="Namnlös_övertoning_3-12" data-name="Namnlös övertoning 3" x1="360.52" y1="306.87" x2="453.76" y2="306.87" gradientTransform="translate(-106.18 -106.21) rotate(103.48) scale(1 -1)" xlink:href="#Namnlös_övertoning_3"/>
    <linearGradient id="Namnlös_övertoning_3-13" data-name="Namnlös övertoning 3" x1="376" y1="102.3" x2="469.25" y2="102.3" gradientTransform="translate(-30.76 36.43) rotate(77.48) scale(1 -1)" xlink:href="#Namnlös_övertoning_3"/>
  </defs>
  <circle class="cls-6" cx="264.06" cy="252.18" r="104"/>
  <path class="cls-7" d="M328.42,141.04c-6.16-5.18,1.69-24.69,17.48-43.47,20.1-23.92,44.99-40.76,61.46-51.91l1.81-1.22c.54-.36.8-.14.54.45l-.89,1.99c-8.15,18.14-20.45,45.56-40.55,69.48-15.82,18.79-33.67,29.87-39.83,24.69Z"/>
  <path class="cls-3" d="M407.39,49.98c-7.7,15.01-17.53,31.62-30.38,46.91-16.81,20-35.82,31.8-42.37,26.29-1.52-1.28-2.15-3.44-2.16-6.15-6.11,11.28-8.06,20.67-4.07,24.02,6.16,5.18,24.02-5.9,39.82-24.7,19-22.61,31.03-48.3,39.16-66.37Z"/>
  <path class="cls-7" d="M379.55,196.88c-3.75-7.12,10.88-22.23,32.58-33.67,27.64-14.57,57.04-20.78,76.5-24.9l2.14-.45c.63-.13.79.17.33.62l-1.58,1.51c-14.39,13.73-36.12,34.48-63.76,49.05-21.74,11.44-42.45,14.96-46.2,7.84Z"/>
  <path class="cls-1" d="M487.02,142.33c-12.79,11-28.16,22.67-45.82,31.99-23.11,12.19-45.17,15.94-49.16,8.37-.92-1.75-.7-4,.32-6.51-9.91,8.15-15.26,16.1-12.83,20.71,3.75,7.12,24.47,3.59,46.19-7.86,26.13-13.78,46.95-33.04,61.3-46.7Z"/>
  <path class="cls-7" d="M391.34,263.29c-.46-8.04,19.13-15.7,43.63-17.08,31.19-1.77,60.52,4.8,79.93,9.15l2.13.48c.63.15.65.48.04.7l-2.06.72c-18.79,6.51-47.19,16.35-78.38,18.12-24.53,1.37-44.83-4.03-45.28-12.07Z"/>
  <path class="cls-11" d="M511.77,258.34c-16.2,4.69-35.04,8.92-54.97,10.05-26.09,1.48-47.7-4.27-48.19-12.82-.11-1.98,1.03-3.92,2.99-5.78-12.4,3.29-20.57,8.3-20.28,13.51.46,8.03,20.77,13.44,45.28,12.05,29.49-1.67,56.43-10.53,75.16-17Z"/>
  <path class="cls-7" d="M372.7,330.31c4.65-6.57,24.75-.35,44.77,13.82,25.5,18.05,44.34,41.46,56.82,56.95l1.37,1.7c.4.51.21.78-.4.57l-2.06-.73c-18.75-6.62-47.09-16.61-72.59-34.67-20.04-14.21-32.55-31.08-27.9-37.65Z"/>
  <path class="cls-5" d="M469.98,401.48c-15.6-6.43-32.96-14.86-49.26-26.39-21.33-15.1-34.65-33.07-29.7-40.05,1.15-1.62,3.25-2.43,5.95-2.66-11.75-5.16-21.26-6.32-24.28-2.07-4.65,6.57,7.87,23.45,27.91,37.64,24.11,17.07,50.7,26.92,69.38,33.54Z"/>
  <path class="cls-7" d="M264.08,387.55c8.05,0,14.59,19.99,14.59,44.53,0,31.24-8.22,60.15-13.65,79.28l-.6,2.1c-.18.62-.52.62-.7,0l-.6-2.1c-5.43-19.13-13.65-48.04-13.65-79.28.02-24.57,6.56-44.53,14.61-44.53Z"/>
  <path class="cls-9" d="M262.2,508.06c-3.77-16.44-6.92-35.49-6.92-55.45,0-26.13,6.96-47.39,15.53-47.39,1.98,0,3.86,1.25,5.61,3.32-2.58-12.57-7.13-21.01-12.34-21.01-8.05,0-14.59,19.97-14.59,44.53,0,29.54,7.32,56.94,12.72,76Z"/>
  <path class="cls-7" d="M329.51,378.62c7.06-3.87,22.4,10.53,34.18,32.05,15,27.41,21.68,56.71,26.1,76.1l.48,2.13c.14.63-.16.79-.61.34l-1.53-1.55c-13.95-14.17-35.04-35.58-50.05-62.98-11.78-21.56-15.63-42.21-8.57-46.07Z"/>
  <path class="cls-4" d="M385.74,485.23c-11.2-12.61-23.11-27.81-32.7-45.32-12.55-22.92-16.65-44.91-9.14-49.02,1.74-.95,3.99-.76,6.51.22-8.3-9.79-16.34-15.01-20.91-12.5-7.06,3.86-3.21,24.53,8.59,46.07,14.18,25.91,33.77,46.43,47.65,60.56Z"/>
  <path class="cls-7" d="M264.05,126.37c-8.05,0-14.59-19.99-14.59-44.53,0-31.24,8.22-60.15,13.65-79.28l.6-2.1c.18-.62.52-.62.7,0l.6,2.1c5.43,19.13,13.65,48.04,13.65,79.28-.02,24.57-6.56,44.53-14.61,44.53Z"/>
  <path class="cls-13" d="M265.93,5.86c3.77,16.44,6.92,35.49,6.92,55.45,0,26.13-6.96,47.39-15.53,47.39-1.98,0-3.86-1.25-5.61-3.32,2.58,12.57,7.13,21.01,12.34,21.01,8.05,0,14.59-19.97,14.59-44.53,0-29.54-7.32-56.94-12.72-76Z"/>
  <path class="cls-7" d="M149.25,112.14c-20.1-23.92-32.41-51.34-40.55-69.48l-.89-1.99c-.26-.59,0-.81.54-.45l1.81,1.22c16.47,11.15,41.36,27.99,61.46,51.91,15.78,18.78,23.64,38.29,17.48,43.47-6.16,5.18-24.01-5.89-39.83-24.69Z"/>
  <path class="cls-8" d="M149.28,112.14c15.8,18.8,33.66,29.88,39.82,24.7,3.99-3.35,2.04-12.74-4.07-24.02,0,2.71-.64,4.87-2.16,6.15-6.55,5.51-25.56-6.28-42.37-26.29-12.84-15.28-22.68-31.89-30.38-46.91,8.14,18.06,20.16,43.76,39.16,66.37Z"/>
  <path class="cls-7" d="M91.76,184.83c-27.64-14.57-49.37-35.32-63.76-49.05l-1.58-1.51c-.46-.45-.31-.75.33-.62l2.14.45c19.46,4.12,48.86,10.33,76.5,24.9,21.7,11.44,36.34,26.55,32.58,33.67-3.75,7.12-24.46,3.6-46.2-7.84Z"/>
  <path class="cls-12" d="M91.78,184.82c21.72,11.45,42.44,14.98,46.19,7.86,2.43-4.61-2.91-12.57-12.83-20.71,1.02,2.51,1.24,4.75.32,6.51-3.99,7.57-26.04,3.82-49.16-8.37-17.66-9.31-33.04-20.98-45.82-31.99,14.35,13.66,35.17,32.92,61.3,46.7Z"/>
  <path class="cls-7" d="M80.89,271.15c-31.19-1.77-59.59-11.61-78.38-18.12l-2.06-.72c-.61-.22-.59-.55.04-.7l2.13-.48c19.41-4.34,48.73-10.91,79.93-9.15,24.5,1.39,44.09,9.05,43.63,17.08-.46,8.04-20.75,13.44-45.28,12.07Z"/>
  <path class="cls-2" d="M80.9,271.13c24.52,1.39,44.83-4.01,45.28-12.05.29-5.2-7.87-10.22-20.28-13.51,1.97,1.86,3.11,3.8,2.99,5.78-.48,8.55-22.1,14.3-48.19,12.82-19.93-1.13-38.77-5.36-54.97-10.05,18.73,6.46,45.67,15.33,75.16,17Z"/>
  <path class="cls-7" d="M116.91,363.76c-25.5,18.05-53.84,28.05-72.59,34.67l-2.06.73c-.61.21-.81-.07-.4-.57l1.37-1.7c12.47-15.49,31.32-38.9,56.82-56.95,20.02-14.18,40.12-20.39,44.77-13.82,4.65,6.57-7.86,23.44-27.9,37.65Z"/>
  <path class="cls-14" d="M116.91,363.73c20.04-14.19,32.56-31.07,27.91-37.64-3.01-4.25-12.52-3.09-24.28,2.07,2.7.23,4.8,1.04,5.95,2.66,4.95,6.99-8.38,24.95-29.7,40.05-16.29,11.54-33.66,19.97-49.26,26.39,18.67-6.61,45.27-16.47,69.38-33.54Z"/>
  <path class="cls-7" d="M179.43,420.48c-15,27.41-36.09,48.81-50.05,62.98l-1.53,1.55c-.46.46-.75.29-.61-.34l.48-2.13c4.42-19.39,11.09-48.69,26.1-76.1,11.78-21.52,27.12-35.92,34.18-32.05,7.06,3.87,3.21,24.51-8.57,46.07Z"/>
  <path class="cls-10" d="M179.42,420.46c11.79-21.54,15.64-42.2,8.59-46.07-4.57-2.5-12.61,2.72-20.91,12.5,2.52-.98,4.77-1.17,6.51-.22,7.51,4.11,3.41,26.1-9.14,49.02-9.59,17.51-21.5,32.7-32.7,45.32,13.89-14.13,33.47-34.65,47.65-60.56Z"/>
</svg>