<?xml version="1.0" encoding="UTF-8"?>
<svg id="Lager_1" xmlns="http://www.w3.org/2000/svg" viewBox="0 0 312.44 276.05">
  <defs>
    <style>
      .cls-1 {
        fill: #1c8ca3;
      }

      .cls-2 {
        fill: #f39b29;
      }

      .cls-3 {
        fill: #e41718;
      }

      .cls-4 {
        fill: #f39041;
      }

      .cls-5 {
        fill: #8196ae;
      }

      .cls-6 {
        fill: #c1d9e5;
      }

      .cls-7 {
        fill: #bed8e4;
      }

      .cls-8 {
        fill: #f8bc17;
      }

      .cls-9 {
        fill: #d8eaf2;
      }

      .cls-10 {
        fill: #9fb9c5;
      }

      .cls-11 {
        fill: #f29a26;
      }
    </style>
  </defs>
  <path class="cls-10" d="M248.87,174.67c-28.69-.1-57.38-.19-86.07-.29,3.21-5.72,7.93-10.33,11.55-15.74,2.14-3.19,5.37-5.64,6.78-9.67h-11.08c-3.92-.02-7.83-.04-11.75-.07-14.18-.03-28.36-.03-42.54-.14-1.87-.01-2.58,1.18-3.48,2.34-6.11,7.84-12.23,15.68-18.35,23.52-18.45-.02-36.9.03-55.34-.09-18.41-.12-33-10.97-37.33-27.54-6.35-24.33,11.99-47.51,37.17-46.75,3.28.1,4.63-.8,5.95-3.76,6.54-14.66,21.1-22.9,37.59-21.54,1.8.15,2.83.17,3.57-1.89,11.06-30.88,32.94-48.6,65.35-53.42,1.3.77,2.73,1.04,4.19,1.35,19.07,4,34.1,14.38,45.89,29.6,6.82,8.8,11.13,18.89,13.82,30.17,5.16-5.35,10.94-9.11,16.86-12.68,5.59-1.98,11.11-4.18,17.07-4.84.41.96,1.32.95,2.15,1.2,11.83,3.46,22,9.36,29.77,19.26,10.78,13.73,15.01,29.26,11.19,46.07-5.09,22.43-19.01,37.41-41.48,43.84-.76,0-1.33.23-1.48,1.07Z"/>
  <path class="cls-4" d="M93.93,174.62c6.12-7.84,12.24-15.68,18.35-23.52.91-1.16,1.61-2.35,3.48-2.34,14.18.11,28.36.11,42.54.14-10.9,14.26-21.8,28.53-33.16,43.39h12.19c9.23.05,18.47.1,27.7.15-1.79,2.8-4.67,4.47-7.14,6.47-18.27,14.79-36.74,29.34-54.99,44.15-1.87,1.52-4.92,2.27-5.14,5.46,0,0,.03-.04.03-.04-1.91-.2-3.24.42-3.59,2.48,0,0,0-.08,0-.08-.52-.04-.8.23-.87.73,0,0,.06-.09.06-.09-.3.24-.6.48-.9.72,0,0,.06-.04.05-.04-.7-.02-1.32.09-1.44.95,0,0,.06-.12.06-.12-.3.28-.6.56-.9.85-2.99,2.18-5.98,4.37-8.97,6.55l.05.04c-.45-1.42.65-2.32,1.21-3.36,7.92-14.51,15.89-29,23.83-43.49.89-1.62,1.74-3.25,2.91-5.44h-40.81c8.9-11.74,17.17-22.65,25.44-33.55Z"/>
  <path class="cls-9" d="M254.79,38.15c1.78.02,3.56.05,5.34.07.07,1.65,1.53,1.8,2.58,2.32,6.67,3.33,10.68,8.64,12.12,15.96.51,2.61.1,3.58-3.02,2.98-11.67-2.25-23.18-1.76-34.14,3.39-2.04.96-2.67.37-3.49-1.52-3.62-8.39-8.68-15.84-14.92-22.52-8.12-8.69-18.09-14.57-28.78-19.41,4.43-10.9,13.13-16.29,24.15-18.65,1.68-.36,3.41-.49,5.12-.73.8,1.05,1.96.57,2.98.69.24,0,.48,0,.72.02.81,1.08,2.09,1.22,3.24,1.67,12.63,4.94,21.41,17.08,21.44,29.56q.01,6.68,6.68,6.17Z"/>
  <path class="cls-4" d="M217.39,225.23c6.75.06,13.5.12,20.25.18-.18.45-.23,1.07-.57,1.34-13.04,10.5-26.16,20.91-39.15,31.46-2.98,2.42-6.85,3.92-8.56,7.76,0,0-.1-.04-.11-.04-.56-.11-.8.16-.81.7,0,0,.04,0,.04,0-1.15-.34-1.66.18-1.71,1.29,0,0,.03-.03.03-.03-.69-.01-1.3.11-1.45.94,0,0,.07-.11.07-.11-.3.26-.6.53-.9.79-2.85,2.15-5.7,4.29-8.69,6.54-.48-1.58.53-2.36,1.02-3.27,5.82-10.72,11.62-21.45,17.59-32.08,1.53-2.73,1.64-3.69-1.99-3.6-8.54.2-17.08.07-26.63.07,1.84-2.41,3.08-4.04,4.33-5.67,9.34-12.15,18.68-24.29,28-36.45.94-1.22,1.82-2.15,3.61-2.13,10.21.11,20.42.09,30.64.11-4.14,6.86-9.57,12.76-14.31,19.18-3.09,4.19-6.6,8.1-9.49,13.02h8.77Z"/>
  <path class="cls-5" d="M250.35,173.6c22.47-6.43,36.39-21.41,41.48-43.84,3.82-16.81-.41-32.35-11.19-46.07-7.77-9.9-17.94-15.8-29.77-19.26-.84-.24-1.74-.23-2.15-1.19,11-1.5,21.53.1,31.6,4.74,16.97,8.63,27.43,22.25,31.14,40.92,5.77,29.05-14.81,59.23-44.03,64.66-5.63,1.05-11.32,1.71-17.07,1.08,0-.34,0-.69-.01-1.03Z"/>
  <path class="cls-5" d="M231.65,68.07c-5.92,3.57-11.7,7.33-16.86,12.68-2.69-11.28-7-21.37-13.82-30.17-11.79-15.22-26.82-25.61-45.89-29.6-1.46-.31-2.9-.58-4.19-1.35,12.53-1.57,24.63.33,36.45,4.48,20.69,8.69,35.71,23.09,44.31,43.96Z"/>
  <path class="cls-7" d="M231.65,68.07c-8.6-20.87-23.62-35.27-44.31-43.96,1.85-1.02,1.15-3.75,3.13-4.69,10.69,4.84,20.67,10.71,28.78,19.41,6.24,6.69,11.3,14.14,14.92,22.52.82,1.9,1.45,2.48,3.49,1.52,10.96-5.16,22.47-5.64,34.14-3.39,3.12.6,3.53-.37,3.02-2.98-1.43-7.31-5.45-12.62-12.12-15.96-1.04-.52-2.51-.68-2.58-2.32,8.8.8,15.44,4.69,19.26,12.99,2.02,4.4,1.88,8.91,1.32,13.47-.13,1.09-.48,2.16-.38,3.29-10.07-4.65-20.61-6.25-31.6-4.74-5.96.66-11.49,2.86-17.07,4.84Z"/>
  <path class="cls-3" d="M137.34,192.29h-12.19c11.36-14.86,22.26-29.12,33.16-43.39,3.92.02,7.83.04,11.75.07-6.52,8.62-13.03,17.23-19.55,25.85-4.54,5.71-9.37,11.21-13.17,17.47Z"/>
  <path class="cls-3" d="M97.77,248.52c.22-3.19,3.27-3.94,5.14-5.46,18.25-14.81,36.72-29.36,54.99-44.15,2.47-2,5.35-3.67,7.14-6.47,3.81,0,7.61,0,11.41,0,.08,1.21-.78,1.44-1.32,1.83-25.33,17.89-50.68,35.76-76.03,53.62-.39.28-.88.42-1.33.62Z"/>
  <path class="cls-5" d="M150.5,174.82c6.52-8.62,13.03-17.23,19.55-25.85,3.58,0,7.15,0,11.08,0-1.41,4.03-4.64,6.49-6.78,9.67-3.63,5.41-8.34,10.02-11.55,15.74-4.07,1.04-8.2.29-12.3.44Z"/>
  <path class="cls-3" d="M217.39,225.23h-8.77c2.89-4.92,6.39-8.83,9.49-13.02,4.74-6.42,10.16-12.32,14.31-19.18h8.53c.15,1.55-1,2.3-1.7,3.22-6.61,8.65-13.27,17.26-19.9,25.9-.74.96-1.75,1.78-1.95,3.08Z"/>
  <path class="cls-6" d="M254.79,38.15q-6.67.51-6.68-6.17c-.03-12.49-8.81-24.63-21.44-29.56-1.15-.45-2.43-.59-3.24-1.67,12.55-.18,24.52,8.89,29.18,22.07,1.76,4.97,2.42,10.08,2.17,15.33Z"/>
  <path class="cls-3" d="M189.36,265.97c1.72-3.83,5.58-5.33,8.56-7.76,12.99-10.56,26.11-20.97,39.15-31.46.33-.27.38-.89.57-1.34,2.81,0,5.63,0,8.37,0,.26,1.12-.46,1.33-.92,1.66-17.91,12.65-35.83,25.29-53.76,37.91-.6.42-1.31.67-1.97.99Z"/>
  <path class="cls-11" d="M94.21,250.96c.35-2.06,1.69-2.68,3.59-2.48-.92,1.23-2.11,2.06-3.59,2.48Z"/>
  <path class="cls-6" d="M222.71.73c-1.02-.12-2.18.36-2.98-.69,1.04.05,2.17-.36,2.98.69Z"/>
  <path class="cls-1" d="M250.35,173.6c0,.34,0,.69.01,1.03-.5.01-1,.03-1.49.04.15-.84.72-1.08,1.48-1.07Z"/>
  <path class="cls-2" d="M186.78,267.92c.05-1.11.55-1.63,1.71-1.29-.33.75-.92,1.15-1.71,1.29Z"/>
  <path class="cls-11" d="M91.11,253.15c.12-.86.74-.97,1.44-.95-.28.62-.8.87-1.44.95Z"/>
  <path class="cls-2" d="M185.36,268.83c.15-.82.75-.95,1.45-.94-.28.62-.81.85-1.45.94Z"/>
  <path class="cls-11" d="M93.33,251.6c.08-.5.35-.76.87-.73-.29.24-.58.48-.87.73Z"/>
  <path class="cls-11" d="M92.49,252.24c.3-.24.6-.48.9-.72-.3.24-.6.48-.9.72Z"/>
  <path class="cls-11" d="M90.27,253.87c.3-.28.6-.56.9-.85-.3.28-.6.56-.9.85Z"/>
  <polygon class="cls-8" points="81.3 260.43 81.09 260.5 81.35 260.47 81.3 260.43"/>
  <path class="cls-2" d="M188.44,266.62c0-.54.25-.8.81-.7-.27.23-.54.46-.81.7Z"/>
  <path class="cls-2" d="M184.53,269.51c.3-.26.6-.53.9-.79-.3.26-.6.53-.9.79Z"/>
</svg>