<?xml version="1.0" encoding="UTF-8"?>
<svg id="Lager_1" xmlns="http://www.w3.org/2000/svg" viewBox="0 0 396.04 25.95">
  <defs>
    <style>
      .cls-1 {
        fill: #fff;
      }
    </style>
  </defs>
  <path class="cls-1" d="M9.84,25.1L0,.84h10.71l5.43,15.57L20.9.84h9.6l4.76,15.57L40.68.84h10.72l-9.86,24.26h-11.76l-4.08-13.87-4.1,13.87h-11.76Z"/>
  <path class="cls-1" d="M82.12.84v7.1h-24.45v2.29h23.12v5.34h-23.12v2.41h24.73v7.12h-34.56V.84h34.28Z"/>
  <path class="cls-1" d="M90.43,25.1h-11.94L93.23.83h12.48l14.71,24.28h-11.94l-1.63-3.11h-14.77l-1.65,3.11ZM95.83,14.87h7.28l-3.64-6.91-3.64,6.91Z"/>
  <path class="cls-1" d="M144.45.84v7.42h-13.39v16.84h-9.83V8.26h-13.39V.84h36.62Z"/>
  <path class="cls-1" d="M142.76.84h9.83v8.35h16.52V.84h9.83v24.26h-9.83v-8.49h-16.52v8.49h-9.83V.84Z"/>
  <path class="cls-1" d="M214.22.84v7.1h-24.45v2.29h23.12v5.34h-23.12v2.41h24.73v7.12h-34.56V.84h34.28Z"/>
  <path class="cls-1" d="M213.48,25.1V.84h26.14c1.28,0,2.51.11,3.7.33s2.24.6,3.16,1.15,1.66,1.3,2.21,2.26.83,2.17.83,3.63c0,2.8-1.32,4.83-3.96,6.08,2.29.91,3.46,2.43,3.53,4.55.07,2.11.26,3.6.58,4.46.29.86.69,1.45,1.2,1.79h-11.29c-.27-.21-.45-.49-.55-.84s-.16-.74-.18-1.16-.04-.86-.04-1.32-.05-.9-.13-1.32c-.14-.83-.56-1.35-1.25-1.56-.68-.21-1.68-.32-2.99-.32h-11.13v6.52h-9.83ZM223.31,11.46h12.9c.69,0,1.26-.06,1.71-.18s.79-.28,1.05-.46.42-.38.52-.58.14-.38.14-.54c0-.43-.12-.77-.35-1.01s-.52-.42-.87-.53-.72-.18-1.12-.19-.76-.03-1.07-.03h-12.9v3.52Z"/>
  <path class="cls-1" d="M282.84.84v7.42h-24.73v4.24h23.12v7.12h-23.12v5.48h-9.83V.84h34.56Z"/>
  <path class="cls-1" d="M290.68.84v16.84h23.24v7.42h-33.06V.84h9.83Z"/>
  <path class="cls-1" d="M315.58,23.38c-3.86-2.27-5.78-5.74-5.78-10.41,0-1.59.21-3.01.62-4.25s.99-2.32,1.72-3.25,1.6-1.73,2.61-2.38,2.1-1.2,3.29-1.62,2.43-.74,3.75-.96,2.66-.35,4.02-.41c1.71-.07,3.15-.11,4.31-.11,1.22,0,2.46.02,3.72.06s2.51.15,3.75.32,2.46.43,3.65.77,2.33.82,3.42,1.42c3.86,2.27,5.78,5.74,5.78,10.41,0,1.58-.21,2.99-.62,4.24s-.99,2.33-1.72,3.26-1.6,1.73-2.61,2.38-2.1,1.2-3.29,1.62-2.43.74-3.75.96-2.66.35-4.02.41c-1.7.07-3.13.11-4.31.11s-2.46-.02-3.72-.06-2.51-.15-3.75-.32-2.46-.43-3.65-.77-2.33-.82-3.42-1.42ZM320.28,12.97c0,.4.03.81.1,1.22s.17.81.32,1.2.34.74.58,1.07.53.62.87.87c.48.32,1.05.57,1.72.76s1.37.33,2.1.42,1.46.16,2.19.18,1.38.04,1.97.04c3.87,0,6.53-.47,8-1.41.69-.52,1.17-1.16,1.44-1.94s.4-1.58.4-2.42c0-.33-.03-.69-.08-1.08s-.15-.79-.29-1.19-.33-.78-.56-1.15-.54-.68-.91-.94c-.47-.32-1.04-.57-1.71-.76s-1.38-.33-2.11-.43-1.46-.16-2.2-.19-1.39-.04-1.98-.04c-3.86,0-6.52.47-7.98,1.42-.35.25-.64.53-.88.86s-.42.69-.57,1.07-.25.79-.32,1.2-.1.82-.1,1.23Z"/>
  <path class="cls-1" d="M354.48,25.1l-9.84-24.26h10.71l5.43,15.57,4.76-15.57h9.6l4.76,15.57,5.41-15.57h10.72l-9.86,24.26h-11.76l-4.08-13.87-4.1,13.87h-11.76Z"/>
</svg>