<?xml version="1.0" encoding="UTF-8"?>
<svg id="Lager_1" xmlns="http://www.w3.org/2000/svg" viewBox="0 0 448.71 64.81">
  <defs>
    <style>
      .cls-1 {
        fill: #fff;
      }
    </style>
  </defs>
  <path class="cls-1" d="M162.89,0c1.95,7.92-1.89,13.33-9.39,18.09,6.05.35,10.25-1.63,14.67-1.32,1.64.11,1.72-1.81,2.35-2.89,1-1.71,1.74-3.62,3.41-4.82,2.4-1.73,4.39-.91,6,1.24,1.47,1.96,1.34,3.79-.92,4.99-3.87,2.06-4.78,5.94-6.86,10.3,9.4-2.88,17.88-5.45,24.11-12.49.99-1.12,1.98-2.24,2.97-3.36,1.3-1.46,2.78-2.65,4.68-1.12,1.77,1.42,1.29,3.34.39,4.97-1.79,3.23-5.04,5.34-7.06,8.33-6.58,9.73-12.85,19.66-19.61,30.1,10.01-2.01,19.44-3.65,29.19-4.62-1.72-.68-3.45-1.36-5.17-2.05-2.22-.9-4.56-1.98-4.5-4.71.07-2.85,2.31-4.22,4.84-5.01,5.06-1.58,10.13-3.14,15.21-4.68,1.09-.33,2.32-.31,3.21-1.61-4.14-1.07-8.37-1.36-12.21-3.14-4.97-2.3-5.53-5.49-1.35-8.99,1.5-1.25,3.31-2.25,5.12-3,9.54-3.92,19.38-6.86,29.58-8.51,2.11-.34,4.32-.26,6.46-.11,2.26.16,4.5.76,4.07,3.79-.4,2.84-2.53,3.2-4.87,2.92-9.46-1.11-18.52.86-27.43,3.68-3.43,1.09-6.81,2.52-9.76,5.42,5.11,3.21,10.81,2.05,15.97,3.3,3.21.78,8.16-.42,8.63,3.98.51,4.71-4.69,4.27-7.73,5.22-6.93,2.15-13.99,3.89-21.93,6.05,6.73,2.61,12.49,4.8,18.21,7.1,1.68.68,3.27,1.61,4.84,2.53,1.41.83,2.15,2.16,1.75,3.79-.45,1.86-1.92,2.81-3.73,2.65-2.8-.25-5.56-1.01-8.37-1.2-13.66-.9-27.22-.21-40.65,2.62-2.04.43-4.48,1.58-6.03-.41-1.76-2.26.08-4.36,1.34-6.31,4.84-7.47,9.68-14.93,15.22-23.48-7.04,2.55-12.76,5.11-18.97,6.07-1.44.22-1.82,1.84-2.43,2.98-2.87,5.41-5.61,10.88-8.56,16.25-.93,1.68-2.06,3.78-4.53,3.11-2.38-.65-3.29-2.7-3.3-5.02-.05-6.64-.08-13.27.03-19.91.04-2.61,1.75-3.89,4.28-3.79,2.15.09,4.3.45,6.44.73,2.6.34,4.12-.7,4.59-3.67-4.6.59-9.02,1.27-13.46,1.67-1.84.17-2.51,1.23-3.21,2.61-5.44,10.79-12.45,20.76-16.97,32.02-.78,1.95-2.48,2.92-3.56,4.49h-2c-5.68-5.53-4.39-12.85,2.83-16.26.69-.33,1.39-.95,1.77-1.61,3.54-6.3,7.76-12.22,10.44-18.99.23-.17.46-.34.7-.51-.41-.04-.83-.07-1.24-.11-2.48.18-4.95.35-7.44.53,0,.49-.12.87.02,1.11,1.65,2.93.56,5.6-1.35,7.65-1.99,2.14-3.68-.4-5.58-.94-2.87-.81-6.34-1.23-7.29,3.34-.88,4.2-2.7,8.18-2.85,12.56-.06,1.88-.44,3.83-2.6,4.31-2.27.51-3.71-.74-4.64-2.82-1.43-3.21-3.27-6.14-6.28-8.16-3.64-2.45-7.04-3.65-10.14.97-1.27,1.9-3.08,3.49-4.84,4.99-2.05,1.76-4.36,3.03-5.9-.57-.67-1.57-1.42-1.27-2.68-.82-3.12,1.12-6.29,2.1-9.48,3.01-4.62,1.33-9.25,2.74-14.12,2.7-2.33-.02-4.81-.19-5.91-2.8-.98-2.33.34-4.23,1.66-5.9,3.23-4.06,7.28-7.25,11.5-10.22,2.23-1.57,4.44-3.17,7.29-5.21-1.43-.19-1.88-.31-2.33-.3-5.07.13-10.34,3.4-15.08-1.49-1.08-1.11-1.65,1.09-2.16,1.94-3.8,6.23-7.33,12.68-12.75,17.68-3.16,2.91-6.93,6.3-11.47,3.64-4.59-2.69-2.99-7.41-2.27-11.71.43-2.56,2.69-4.95,1.01-7.77.16.37.33.73.5,1.08.11-.1.21-.2.32-.3-.28-.25-.56-.49-.85-.74-5.28,6.69-10.49,13.44-15.87,20.05C6.48,56.01,3.58,57.57,0,54.84,0,53.18,0,51.52,0,49.85c2.34-4.7,4.63-9.43,7.02-14.1,3.92-7.65,9.17-14.59,12.24-22.69.84-2.21,2.01-4.24,4.68-2.76,2.45,1.36,2.47,3.47.99,5.92-2.24,3.69-4.15,7.58-6.2,11.39,4.63-2.04,7.36-5.72,10.58-8.9,1.48-1.46,2.88-3.6,5.45-2,2.61,1.63,2.56,4.01,1.54,6.55-.99,2.45-2.22,4.84-2.94,7.36-1.58,5.56-4.9,10.73-4.43,17.29,3.67-1.63,5.88-4.16,7.69-6.84,5.91-8.71,12.99-16.94,13.33-28.25.08-2.48,0-5.04,3.29-4.93,3.34.12,3.93,2.84,3.5,5.44-.51,3.08-1.57,6.06-2.39,9.09-.04.39-.25,1.03-.11,1.13.52.34.65-.16.75-.57,6.97-3.45,13.93-6.92,20.91-10.36,4.31-2.13,8.63-4.29,13.31-5.46,1.58-.39,3.91-1.31,4.63,1.25.6,2.12-1.02,3.46-2.79,4.15-3.24,1.27-6.58,2.29-9.87,3.42-6.72,2.31-12.99,5.46-18.75,9.67,4.1-.17,8.04-.7,11.97-1.34,2.64-.43,5.31-.39,6.38,2.39,1.05,2.73-1.23,4.19-3.29,5.39-7.05,4.11-13.46,9.14-19.89,14.11-1.29,1-2.87,1.88-3.45,4.22,10.86-1.42,20.11-5.91,29.53-9.9.68-.29,1.35-.56.87-1.78-2.02-5.09,1.7-5.7,5.14-5.86,4.79-.22,8.37-2.02,11.53-5.72,5.92-6.95,12.09-13.71,19.2-19.51,1.61-1.32,3.48-3.2,5.67-1.87,2.13,1.29,1.71,3.76,1.12,5.88-1.12,4.08-2.34,8.14-3.66,12.71,6.27-3.4,12.74-1.99,18.82-3.16,2.37-.46,3.62-1.22,4.87-3.32C150.77,11.92,153.46,5.44,157.9,0h5ZM117.94,18.96c-3.6,3.84-7.19,7.67-10.79,11.51,8.64-1.27,10.01-2.76,10.7-11.63.25,0,.5.01.75.02-.07-.22-.15-.43-.22-.65-.15.25-.29.5-.44.75ZM112.71,37.1c-2.74-.27-5.2-.4-7.8,1.12,2.13,1.78,3.92,3.28,6.1,5.1.65-2.37,1.15-4.2,1.71-6.23ZM156.75,39.81c.3.06.6.13.89.19.66-1.27,1.38-2.52,1.98-3.82.61-1.33.81-2.63-1.14-2.99-1.89-.35-1.67,1.11-1.72,2.2-.06,1.47-.02,2.95-.02,4.42ZM123.46,25.73c.1-.1.27-.21.27-.31,0-.11-.16-.22-.24-.34-.1.1-.27.21-.27.31,0,.11.16.22.24.34Z"/>
  <path class="cls-1" d="M354.77,0c1.2,2.31,1.45,4.51.18,7.01-6.09,11.97-13.99,22.75-24.25,31.23-3.52,2.91-8.06,4.37-9.52,9.31-.18.6-.28,1.23-.56,2.51,8.31-3.06,16.14-5.93,23.96-8.84,1.69-.63,1.61-2.43,2.06-3.73,3.99-11.54,12.76-19.67,20.45-28.55,1.64-1.89,3.92-2.08,5.58.08,1.74,2.27,1.16,4.25-1.32,5.82-9.47,6-15.19,15.05-19.92,24.82-1.23,2.53-1.93,5.49.31,7.95,2.11,2.32,5.07,1.73,7.52,1.04,6.49-1.83,12.34-5,16.82-10.15,3.88-4.46,3.15-7.27-2.24-9.38-1.68-.66-3.54-.87-5.3-1.32-1.61-.41-2.69-1.33-2.6-3.14.09-1.74,1.11-2.62,2.75-3.06,4.2-1.14,12.06,1.89,15.12,5.97,3.09,4.12,2.53,8.32.18,12.57-4.96,8.97-20.69,16.55-30.75,14.84-2.55-.43-5.19-1.16-6.36-3.44-1.71-3.33-3.84-3.24-6.78-2.1-5.26,2.04-10.58,3.91-15.91,5.77-2.68.93-5.59,1.85-7.97-.43-2.55-2.44-1.26-5.48-.09-7.9,5.43-11.25,12.09-21.73,20.43-31.09,4.71-5.29,9.48-10.52,14.22-15.78,1.33,0,2.66,0,4,0Z"/>
  <path class="cls-1" d="M448.71,24.93c-3.35,7.61-7.95,14.36-13.7,20.39-3.05,3.2-6.59,5.61-10.59,7.25-8.3,3.4-13.78-.48-13.61-9.41.02-.96,0-1.92,0-4.43-2.75,3.39-4.63,5.74-6.54,8.06-3.06,3.71-5.97,7.59-9.93,10.43-2.39,1.72-4.92,3.97-8.07,1.81-2.92-2-2.63-5.02-1.94-8.09,1.43-6.35,4.07-12.27,7.1-17.93,4.69-8.77,9.91-17.25,16.17-25.03.52-.64,1.06-1.27,1.61-1.88,1.57-1.73,3.58-2.25,5.25-.64,1.88,1.8,1.38,3.94-.52,5.64-11.19,10.05-17.05,23.44-23.12,36.7-.48,1.04-.75,2.18-1.02,3.3-.11.45.06.96.17,2.32,5.79-6.74,11.14-13,16.51-19.23,4.88-5.66,9.78-11.29,14.67-16.93,1.33-1.54,2.71-3.33,4.95-1.69,2.06,1.5,2.11,3.61.89,5.77-1.87,3.32-3.82,6.6-5.61,9.96-2.17,4.09-4.32,8.23-4.68,12.97-.32,4.21,1.34,5.65,4.89,3.65,10.18-5.73,17.68-13.88,21.2-25.24.98-3.16.2-5.88-2.62-7.88-2.38-1.68-4.29-4.04-1.91-6.56,2.46-2.61,4.95-.39,6.79,1.56,1.44,1.52,2.46,3.44,3.67,5.17v9.97Z"/>
  <path class="cls-1" d="M300.94,12.98c-3.93-.16-6.9.32-7.17,4.67-.06.98-.98,1.88-1.51,1.7-5.21-1.79-5.96,3.54-8.82,5.42-6.8,4.48-13.74,8.68-21.02,12.32-2.19,1.09-4.3,2.35-7.83,4.29,7.99.82,14.45-.79,20.91-.53,2.61.1,6.56-1.52,6.84,2.62.26,3.81-3.71,3.65-6.4,3.85-7.44.55-14.9,1.22-22.35-.14-2.76-.5-4.95-1.71-6.4-4.87-2.18,3.77-4.18,7.18-6.13,10.62-1.45,2.57-3.11,5.44-6.43,3.22-3.29-2.2-2.19-5.49.1-7.72,5.45-5.32,8.63-12.12,12.73-18.32.53-.81,1.47-1.97,1.24-2.58-3.33-8.53,3.93-12.58,8.58-15.22,9.39-5.33,20.01-7.5,29.84.36.65.52,1.08,1.06,1.87-.04,3.46-4.81,8.9-5.61,14.15-6.14,8.42-.85,16.9-1.16,25.36-1.68.5-.03,1,0,1.49.07,2.39.33,4.9.77,4.73,3.91-.17,3.15-2.6,3.42-5.11,3.28-7.8-.43-15.6-1.09-23.4-.1-.62.08-1.25.14-2.49.29,7.13,6.46-1.58,10.87-1.39,16.87,2.61-.7,5.11-1.43,7.65-2.03,2.73-.64,6.04-1.84,6.85,2.26.73,3.67-2.43,4.12-5.11,4.6-1.14.21-2.31.67-3.43.57-7.81-.73-11.5,3.38-13.74,10.37-1.6,4.99-4.39,9.61-6.78,14.33-.89,1.74-2.01,3.85-4.55,2.59-2.3-1.15-2.53-3.21-1.71-5.52,1.95-5.5,5.51-10.17,7.96-15.41.54-1.16.96-2.39,1.52-3.81-1.98-.11-3.65-.05-5.25-.34-1.65-.29-3.39-.86-3.2-3.07.19-2.21,1.75-3.08,3.78-3.19.81-.04,1.64.23,2.46.25,3.42.1,6.02-.82,7.2-4.58,1.38-4.39,3.24-8.64,4.98-13.16ZM252.89,34.51c.3.33.6.66.91.99,7.83-4.8,15.7-9.54,23.47-14.43,1.59-1,4.16-2.07,3.55-4.26-.7-2.5-3.54-1.79-5.59-1.99-3.31-.33-6.59-.15-9.81.8-1.49.44-2.66,1.06-3.45,2.53-2.96,5.49-6.03,10.92-9.06,16.37Z"/>
  <path class="cls-1" d="M117.94,18.96c.15-.25.29-.5.44-.75.07.22.15.43.22.65-.25,0-.5-.01-.75-.02,0,0,.09.12.09.12Z"/>
  <path class="cls-1" d="M55.02,22.99c-.1.4-.23.9-.75.57-.15-.09.06-.74.11-1.13.23.16.45.35.64.56Z"/>
  <path class="cls-1" d="M123.46,25.73c-.09-.11-.25-.23-.24-.34,0-.11.18-.21.27-.31.09.11.25.23.24.34,0,.11-.18.21-.27.31Z"/>
  <path class="cls-1" d="M140.4,27.33c.41.04.83.07,1.24.11-.23.17-.46.34-.7.51-.21-.19-.39-.39-.55-.62Z"/>
  <path class="cls-1" d="M24.69,33.09c.28.25.56.49.85.74-.11.1-.21.2-.32.3-.17-.36-.33-.72-.5-1.08,0-.01-.03.04-.03.04Z"/>
  <path class="cls-1" d="M252.89,34.51c3.03-5.45,6.1-10.88,9.06-16.37.79-1.46,1.96-2.08,3.45-2.53,3.23-.95,6.5-1.13,9.81-.8,2.05.2,4.9-.5,5.59,1.99.61,2.19-1.95,3.26-3.55,4.26-7.77,4.89-15.64,9.63-23.47,14.43-.3-.33-.6-.66-.91-.99Z"/>
</svg>