<?xml version="1.0" encoding="UTF-8"?>
<svg id="Lager_1" data-name="Lager 1" xmlns="http://www.w3.org/2000/svg" xmlns:xlink="http://www.w3.org/1999/xlink" viewBox="0 0 686 96.73">
  <defs>
    <style>
      .cls-1 {
        font-family: MATROSKA, MATROSKA;
        font-size: 48px;
      }

      .cls-2 {
        letter-spacing: -.1em;
      }

      .cls-3 {
        letter-spacing: .03em;
      }

      .cls-4 {
        letter-spacing: -.02em;
      }

      .cls-5 {
        letter-spacing: -.07em;
      }

      .cls-6 {
        letter-spacing: -.16em;
      }

      .cls-7 {
        letter-spacing: -.11em;
      }

      .cls-8 {
        letter-spacing: -.1em;
      }

      .cls-9 {
        letter-spacing: -.04em;
      }

      .cls-10 {
        letter-spacing: -.35em;
      }

      .cls-11 {
        fill: url(#Namnlös_övertoning_157);
        stroke-width: 0px;
      }

      .cls-12 {
        letter-spacing: -.05em;
      }
    </style>
    <linearGradient id="Namnlös_övertoning_157" data-name="Namnlös övertoning 157" x1="303.55" y1="3.58" x2="303.46" y2="41.97" gradientUnits="userSpaceOnUse">
      <stop offset=".18" stop-color="#fff"/>
      <stop offset=".39" stop-color="#fcfcfc"/>
      <stop offset=".5" stop-color="#f4f4f4"/>
      <stop offset=".6" stop-color="#e6e6e6"/>
      <stop offset=".68" stop-color="#d3d3d3"/>
      <stop offset=".75" stop-color="#babab9"/>
      <stop offset=".82" stop-color="#9b9b9a"/>
      <stop offset=".88" stop-color="#767675"/>
      <stop offset=".94" stop-color="#4d4d4b"/>
      <stop offset="1" stop-color="#1e1e1c"/>
      <stop offset="1" stop-color="#1d1d1b"/>
    </linearGradient>
  </defs>
  <text class="cls-1" transform="translate(0 40.17)"><tspan class="cls-2" x="0" y="0">W</tspan><tspan class="cls-8" x="70.99" y="0">E</tspan><tspan class="cls-10" x="119.06" y="0">A</tspan><tspan class="cls-9" x="165.38" y="0">T</tspan><tspan class="cls-3" x="219.14" y="0">H</tspan><tspan class="cls-4" x="275.93" y="0">E</tspan><tspan class="cls-5" x="327.84" y="0">R</tspan><tspan class="cls-12" x="381.45" y="0">F</tspan><tspan class="cls-7" x="432.07" y="0">L</tspan><tspan class="cls-6" x="477.87" y="0">O</tspan><tspan x="531.52" y="0">W</tspan></text>
  <g>
    <path class="cls-11" d="m16.64,40.17L3.52,7.83h14.27l7.24,20.77,6.35-20.77h12.8l6.35,20.77,7.22-20.77h14.3l-13.15,32.34h-15.68l-5.44-18.49-5.46,18.49h-15.68Z"/>
    <path class="cls-11" d="m120.21,7.83v9.47h-32.6v3.05h30.82v7.12h-30.82v3.21h32.98v9.49h-46.08V7.83h45.7Z"/>
    <path class="cls-11" d="m138.49,40.17h-15.91l19.64-32.37h16.64l19.62,32.37h-15.91l-2.18-4.15h-19.69l-2.2,4.15Zm7.2-13.64h9.7l-4.85-9.21-4.85,9.21Z"/>
    <path class="cls-11" d="m217.71,7.83v9.89h-17.86v22.45h-13.1v-22.45h-17.86V7.83h48.82Z"/>
    <path class="cls-11" d="m222.66,7.83h13.1v11.13h22.03V7.83h13.1v32.34h-13.1v-11.32h-22.03v11.32h-13.1V7.83Z"/>
    <path class="cls-11" d="m325.15,7.83v9.47h-32.6v3.05h30.82v7.12h-30.82v3.21h32.98v9.49h-46.08V7.83h45.7Z"/>
    <path class="cls-11" d="m331.36,40.17V7.83h34.85c1.7,0,3.35.14,4.93.43s2.99.8,4.22,1.54,2.21,1.74,2.94,3.01,1.1,2.89,1.1,4.84c0,3.73-1.76,6.44-5.27,8.11,3.05,1.22,4.62,3.24,4.71,6.07.09,2.81.35,4.8.77,5.95.39,1.14.92,1.94,1.59,2.39h-15.05c-.36-.28-.61-.66-.74-1.12s-.21-.98-.25-1.55-.05-1.15-.06-1.76-.07-1.2-.18-1.76c-.19-1.11-.74-1.8-1.66-2.09-.91-.28-2.23-.42-3.98-.42h-14.84v8.7h-13.1Zm13.1-18.19h17.2c.92,0,1.68-.08,2.27-.25s1.06-.37,1.39-.61.57-.5.69-.77.19-.51.19-.71c0-.58-.16-1.03-.47-1.35s-.7-.55-1.16-.7-.96-.23-1.49-.26-1.01-.04-1.43-.04h-17.2v4.69Z"/>
    <path class="cls-11" d="m431.04,7.83v9.89h-32.98v5.65h30.82v9.49h-30.82v7.31h-13.1V7.83h46.08Z"/>
    <path class="cls-11" d="m448.69,7.83v22.45h30.98v9.89h-44.09V7.83h13.1Z"/>
    <path class="cls-11" d="m489.09,37.88c-5.14-3.03-7.71-7.66-7.71-13.88,0-2.12.28-4.01.83-5.66s1.32-3.09,2.3-4.34,2.14-2.3,3.48-3.18,2.8-1.59,4.38-2.16,3.25-.99,5-1.28,3.54-.47,5.36-.55c2.28-.09,4.2-.14,5.74-.14,1.62,0,3.28.03,4.96.08s3.35.2,5,.42,3.28.57,4.86,1.03,3.11,1.09,4.56,1.89c5.14,3.03,7.71,7.66,7.71,13.88,0,2.11-.28,3.99-.83,5.65s-1.32,3.11-2.3,4.35-2.14,2.3-3.48,3.18-2.8,1.59-4.38,2.16-3.25.99-5,1.28-3.54.47-5.36.55c-2.27.09-4.18.14-5.74.14s-3.28-.03-4.96-.08-3.35-.2-5-.42-3.28-.57-4.86-1.03-3.11-1.09-4.56-1.89Zm6.26-13.88c0,.53.04,1.07.13,1.63s.23,1.09.42,1.59.45.98.77,1.43.71.83,1.16,1.16c.64.42,1.41.76,2.3,1.01s1.82.44,2.8.56,1.95.21,2.92.25,1.84.06,2.62.06c5.16,0,8.71-.62,10.66-1.88.92-.69,1.56-1.55,1.92-2.59s.54-2.11.54-3.22c0-.44-.04-.92-.11-1.44s-.2-1.05-.39-1.58-.44-1.04-.75-1.54-.72-.91-1.22-1.25c-.62-.42-1.39-.76-2.29-1.01s-1.84-.44-2.81-.57-1.95-.22-2.93-.26-1.86-.06-2.64-.06c-5.14,0-8.69.63-10.64,1.9-.47.33-.86.71-1.17,1.15s-.57.91-.76,1.43-.34,1.05-.42,1.59-.13,1.09-.13,1.64Z"/>
    <path class="cls-11" d="m548.16,40.17l-13.12-32.34h14.27l7.24,20.77,6.35-20.77h12.8l6.35,20.77,7.22-20.77h14.3l-13.15,32.34h-15.68l-5.44-18.49-5.46,18.49h-15.68Z"/>
  </g>
</svg>